<?xml version="1.0" encoding="UTF-8" standalone="no"?>
<svg 
  xmlns="http://www.w3.org/2000/svg" 
	style="fill:#ffffff;fill-opacity:1"
	height="800px" 
	width="800px" 
	version="1.1" 
	viewBox="0 0 40 60">
	
<path 
  d="M10.5,22.43c0-0.829,0.672-1.5,1.5-1.5h26c0.828,0,1.5,0.671,1.5,1.5s-0.672,1.5-1.5,1.5H12
	C11.172,23.93,10.5,23.258,10.5,22.43z M12,40.723h26c0.828,0,1.5-0.671,1.5-1.5c0-0.829-0.672-1.5-1.5-1.5H12
	c-0.828,0-1.5,0.671-1.5,1.5C10.5,40.051,11.172,40.723,12,40.723z M12,29.457h26c0.828,0,1.5-0.671,1.5-1.5s-0.672-1.5-1.5-1.5H12
	c-0.828,0-1.5,0.671-1.5,1.5S11.172,29.457,12,29.457z M12,35.195h26c0.828,0,1.5-0.671,1.5-1.5c0-0.829-0.672-1.5-1.5-1.5H12
	c-0.828,0-1.5,0.671-1.5,1.5C10.5,34.524,11.172,35.195,12,35.195z M45.5,16.639v28.375h3c0.828,0,1.5,0.671,1.5,1.5
	c0,0.829-0.672,1.5-1.5,1.5H44H6H1.5c-0.828,0-1.5-0.671-1.5-1.5c0-0.829,0.672-1.5,1.5-1.5h3V16.639h-3c-0.828,0-1.5-0.671-1.5-1.5
	v-4.875c0-0.829,0.672-1.5,1.5-1.5h16.726c0.444,0,0.865,0.197,1.15,0.537c1.399,1.672,3.449,2.631,5.624,2.631
	s4.225-0.959,5.624-2.631c0.285-0.34,0.706-0.537,1.15-0.537H48.5c0.828,0,1.5,0.671,1.5,1.5v4.875c0,0.829-0.672,1.5-1.5,1.5H45.5z
	 M42.5,16.639h-35v28.375h35V16.639z M23.589,10.202c0.293,0.293,0.677,0.439,1.061,0.439c0.384,0,0.768-0.146,1.061-0.439
	l5.655-5.655c0.586-0.585,0.586-1.535,0-2.121c-0.586-0.586-1.535-0.586-2.121,0L24.649,7.02L22.98,5.351
	c-0.586-0.586-1.535-0.586-2.121,0c-0.586,0.586-0.586,1.536,0,2.121L23.589,10.202z"/>
</svg>