<?xml version="1.0" encoding="UTF-8" standalone="no"?>
<svg 
  xmlns="http://www.w3.org/2000/svg" 
	style="fill:#ffffff;fill-opacity:1"
	height="60"
  width="40"
  viewBox="0 0 40 60"
  version="1.1">
<polygon
    transform="matrix(0.23426474,0,0,0.23426474,-10.35696,2.4987001)"
    points="129.62,49.35 205.07,124.8 214.81,115.07 129.62,29.87 44.42,115.07 54.16,124.8 "
    id="p1" />
<path transform="translate(5 20) scale(0.03 0.03)"
    d="m 703.9942,54.707763 -60.61023,61.372617 c 200.25521,227.06598 200.00101,573.06523 0.12707,801.78305 l 62.00794,62.89741 C 937.28638,736.41396 936.77808,298.16518 703.9942,54.707763 Z M 562.44327,198.29173 499.8,261.6974 c 122.10991,146.7606 122.10991,363.15308 0.63533,510.93021 l 62.00794,63.02447 c 155.65519,-183.10133 155.90932,-455.7838 0,-637.36035 z m -306.35482,116.6461  Z"
    id="path819" />
<text x="4" y="40" style="font: bold 13px sans-serif;">ZB</text>
</svg>